<svg xmlns="http://www.w3.org/2000/svg" version="1.1" xmlns:xlink="http://www.w3.org/1999/xlink" xmlns:svgjs="http://svgjs.dev/svgjs" width="1440" height="560" preserveAspectRatio="none" viewBox="0 0 1440 560"><g mask="url(&quot;#SvgjsMask1039&quot;)" fill="none"><rect width="1440" height="560" x="0" y="0" fill="rgba(28, 28, 29, 1)"></rect><path d="M132.84 430.89L197.79 468.39L197.79 543.39L132.84 580.89L67.88 543.39L67.88 468.39zM197.79 543.39L262.75 580.89L262.75 655.89L197.79 693.39L132.84 655.89L132.84 580.89zM262.75 -19.11L327.7 18.39L327.7 93.39L262.75 130.89L197.79 93.39L197.79 18.39zM327.7 93.39L392.65 130.89L392.65 205.89L327.7 243.39L262.75 205.89L262.75 130.89zM327.7 543.39L392.65 580.89L392.65 655.89L327.7 693.39L262.75 655.89L262.75 580.89zM457.61 318.39L522.56 355.89L522.56 430.89L457.61 468.39L392.65 430.89L392.65 355.89zM522.56 -19.11L587.51 18.39L587.51 93.39L522.56 130.89L457.61 93.39L457.61 18.39zM717.42 318.39L782.38 355.89L782.38 430.89L717.42 468.39L652.47 430.89L652.47 355.89zM652.47 430.89L717.42 468.39L717.42 543.39L652.47 580.89L587.51 543.39L587.51 468.39zM977.24 93.39L1042.19 130.89L1042.19 205.89L977.24 243.39L912.28 205.89L912.28 130.89zM977.24 318.39L1042.19 355.89L1042.19 430.89L977.24 468.39L912.28 430.89L912.28 355.89zM1107.14 93.39L1172.1 130.89L1172.1 205.89L1107.14 243.39L1042.19 205.89L1042.19 130.89zM1107.14 318.39L1172.1 355.89L1172.1 430.89L1107.14 468.39L1042.19 430.89L1042.19 355.89zM1042.19 430.89L1107.14 468.39L1107.14 543.39L1042.19 580.89L977.24 543.39L977.24 468.39zM1237.05 543.39L1302 580.89L1302 655.89L1237.05 693.39L1172.1 655.89L1172.1 580.89zM1302.01 205.89L1366.96 243.39L1366.96 318.39L1302.01 355.89L1237.05 318.39L1237.05 243.39zM1431.91 -19.11L1496.87 18.39L1496.87 93.39L1431.91 130.89L1366.96 93.39L1366.96 18.39z" stroke="#03305d" stroke-width="2"></path><path d="M125.34 430.89 a7.5 7.5 0 1 0 15 0 a7.5 7.5 0 1 0 -15 0zM190.29 468.39 a7.5 7.5 0 1 0 15 0 a7.5 7.5 0 1 0 -15 0zM190.29 543.39 a7.5 7.5 0 1 0 15 0 a7.5 7.5 0 1 0 -15 0zM125.34 580.89 a7.5 7.5 0 1 0 15 0 a7.5 7.5 0 1 0 -15 0zM60.38 543.39 a7.5 7.5 0 1 0 15 0 a7.5 7.5 0 1 0 -15 0zM60.38 468.39 a7.5 7.5 0 1 0 15 0 a7.5 7.5 0 1 0 -15 0zM255.25 580.89 a7.5 7.5 0 1 0 15 0 a7.5 7.5 0 1 0 -15 0zM255.25 655.89 a7.5 7.5 0 1 0 15 0 a7.5 7.5 0 1 0 -15 0zM190.29 693.39 a7.5 7.5 0 1 0 15 0 a7.5 7.5 0 1 0 -15 0zM125.34 655.89 a7.5 7.5 0 1 0 15 0 a7.5 7.5 0 1 0 -15 0zM255.25 -19.11 a7.5 7.5 0 1 0 15 0 a7.5 7.5 0 1 0 -15 0zM320.2 18.39 a7.5 7.5 0 1 0 15 0 a7.5 7.5 0 1 0 -15 0zM320.2 93.39 a7.5 7.5 0 1 0 15 0 a7.5 7.5 0 1 0 -15 0zM255.25 130.89 a7.5 7.5 0 1 0 15 0 a7.5 7.5 0 1 0 -15 0zM190.29 93.39 a7.5 7.5 0 1 0 15 0 a7.5 7.5 0 1 0 -15 0zM190.29 18.39 a7.5 7.5 0 1 0 15 0 a7.5 7.5 0 1 0 -15 0zM385.15 130.89 a7.5 7.5 0 1 0 15 0 a7.5 7.5 0 1 0 -15 0zM385.15 205.89 a7.5 7.5 0 1 0 15 0 a7.5 7.5 0 1 0 -15 0zM320.2 243.39 a7.5 7.5 0 1 0 15 0 a7.5 7.5 0 1 0 -15 0zM255.25 205.89 a7.5 7.5 0 1 0 15 0 a7.5 7.5 0 1 0 -15 0zM320.2 543.39 a7.5 7.5 0 1 0 15 0 a7.5 7.5 0 1 0 -15 0zM385.15 580.89 a7.5 7.5 0 1 0 15 0 a7.5 7.5 0 1 0 -15 0zM385.15 655.89 a7.5 7.5 0 1 0 15 0 a7.5 7.5 0 1 0 -15 0zM320.2 693.39 a7.5 7.5 0 1 0 15 0 a7.5 7.5 0 1 0 -15 0zM450.11 318.39 a7.5 7.5 0 1 0 15 0 a7.5 7.5 0 1 0 -15 0zM515.06 355.89 a7.5 7.5 0 1 0 15 0 a7.5 7.5 0 1 0 -15 0zM515.06 430.89 a7.5 7.5 0 1 0 15 0 a7.5 7.5 0 1 0 -15 0zM450.11 468.39 a7.5 7.5 0 1 0 15 0 a7.5 7.5 0 1 0 -15 0zM385.15 430.89 a7.5 7.5 0 1 0 15 0 a7.5 7.5 0 1 0 -15 0zM385.15 355.89 a7.5 7.5 0 1 0 15 0 a7.5 7.5 0 1 0 -15 0zM515.06 -19.11 a7.5 7.5 0 1 0 15 0 a7.5 7.5 0 1 0 -15 0zM580.01 18.39 a7.5 7.5 0 1 0 15 0 a7.5 7.5 0 1 0 -15 0zM580.01 93.39 a7.5 7.5 0 1 0 15 0 a7.5 7.5 0 1 0 -15 0zM515.06 130.89 a7.5 7.5 0 1 0 15 0 a7.5 7.5 0 1 0 -15 0zM450.11 93.39 a7.5 7.5 0 1 0 15 0 a7.5 7.5 0 1 0 -15 0zM450.11 18.39 a7.5 7.5 0 1 0 15 0 a7.5 7.5 0 1 0 -15 0zM709.92 318.39 a7.5 7.5 0 1 0 15 0 a7.5 7.5 0 1 0 -15 0zM774.88 355.89 a7.5 7.5 0 1 0 15 0 a7.5 7.5 0 1 0 -15 0zM774.88 430.89 a7.5 7.5 0 1 0 15 0 a7.5 7.5 0 1 0 -15 0zM709.92 468.39 a7.5 7.5 0 1 0 15 0 a7.5 7.5 0 1 0 -15 0zM644.97 430.89 a7.5 7.5 0 1 0 15 0 a7.5 7.5 0 1 0 -15 0zM644.97 355.89 a7.5 7.5 0 1 0 15 0 a7.5 7.5 0 1 0 -15 0zM709.92 543.39 a7.5 7.5 0 1 0 15 0 a7.5 7.5 0 1 0 -15 0zM644.97 580.89 a7.5 7.5 0 1 0 15 0 a7.5 7.5 0 1 0 -15 0zM580.01 543.39 a7.5 7.5 0 1 0 15 0 a7.5 7.5 0 1 0 -15 0zM580.01 468.39 a7.5 7.5 0 1 0 15 0 a7.5 7.5 0 1 0 -15 0zM969.74 93.39 a7.5 7.5 0 1 0 15 0 a7.5 7.5 0 1 0 -15 0zM1034.69 130.89 a7.5 7.5 0 1 0 15 0 a7.5 7.5 0 1 0 -15 0zM1034.69 205.89 a7.5 7.5 0 1 0 15 0 a7.5 7.5 0 1 0 -15 0zM969.74 243.39 a7.5 7.5 0 1 0 15 0 a7.5 7.5 0 1 0 -15 0zM904.78 205.89 a7.5 7.5 0 1 0 15 0 a7.5 7.5 0 1 0 -15 0zM904.78 130.89 a7.5 7.5 0 1 0 15 0 a7.5 7.5 0 1 0 -15 0zM969.74 318.39 a7.5 7.5 0 1 0 15 0 a7.5 7.5 0 1 0 -15 0zM1034.69 355.89 a7.5 7.5 0 1 0 15 0 a7.5 7.5 0 1 0 -15 0zM1034.69 430.89 a7.5 7.5 0 1 0 15 0 a7.5 7.5 0 1 0 -15 0zM969.74 468.39 a7.5 7.5 0 1 0 15 0 a7.5 7.5 0 1 0 -15 0zM904.78 430.89 a7.5 7.5 0 1 0 15 0 a7.5 7.5 0 1 0 -15 0zM904.78 355.89 a7.5 7.5 0 1 0 15 0 a7.5 7.5 0 1 0 -15 0zM1099.64 93.39 a7.5 7.5 0 1 0 15 0 a7.5 7.5 0 1 0 -15 0zM1164.6 130.89 a7.5 7.5 0 1 0 15 0 a7.5 7.5 0 1 0 -15 0zM1164.6 205.89 a7.5 7.5 0 1 0 15 0 a7.5 7.5 0 1 0 -15 0zM1099.64 243.39 a7.5 7.5 0 1 0 15 0 a7.5 7.5 0 1 0 -15 0zM1099.64 318.39 a7.5 7.5 0 1 0 15 0 a7.5 7.5 0 1 0 -15 0zM1164.6 355.89 a7.5 7.5 0 1 0 15 0 a7.5 7.5 0 1 0 -15 0zM1164.6 430.89 a7.5 7.5 0 1 0 15 0 a7.5 7.5 0 1 0 -15 0zM1099.64 468.39 a7.5 7.5 0 1 0 15 0 a7.5 7.5 0 1 0 -15 0zM1099.64 543.39 a7.5 7.5 0 1 0 15 0 a7.5 7.5 0 1 0 -15 0zM1034.69 580.89 a7.5 7.5 0 1 0 15 0 a7.5 7.5 0 1 0 -15 0zM969.74 543.39 a7.5 7.5 0 1 0 15 0 a7.5 7.5 0 1 0 -15 0zM1229.55 543.39 a7.5 7.5 0 1 0 15 0 a7.5 7.5 0 1 0 -15 0zM1294.5 580.89 a7.5 7.5 0 1 0 15 0 a7.5 7.5 0 1 0 -15 0zM1294.5 655.89 a7.5 7.5 0 1 0 15 0 a7.5 7.5 0 1 0 -15 0zM1229.55 693.39 a7.5 7.5 0 1 0 15 0 a7.5 7.5 0 1 0 -15 0zM1164.6 655.89 a7.5 7.5 0 1 0 15 0 a7.5 7.5 0 1 0 -15 0zM1164.6 580.89 a7.5 7.5 0 1 0 15 0 a7.5 7.5 0 1 0 -15 0zM1294.51 205.89 a7.5 7.5 0 1 0 15 0 a7.5 7.5 0 1 0 -15 0zM1359.46 243.39 a7.5 7.5 0 1 0 15 0 a7.5 7.5 0 1 0 -15 0zM1359.46 318.39 a7.5 7.5 0 1 0 15 0 a7.5 7.5 0 1 0 -15 0zM1294.51 355.89 a7.5 7.5 0 1 0 15 0 a7.5 7.5 0 1 0 -15 0zM1229.55 318.39 a7.5 7.5 0 1 0 15 0 a7.5 7.5 0 1 0 -15 0zM1229.55 243.39 a7.5 7.5 0 1 0 15 0 a7.5 7.5 0 1 0 -15 0zM1424.41 -19.11 a7.5 7.5 0 1 0 15 0 a7.5 7.5 0 1 0 -15 0zM1489.37 18.39 a7.5 7.5 0 1 0 15 0 a7.5 7.5 0 1 0 -15 0zM1489.37 93.39 a7.5 7.5 0 1 0 15 0 a7.5 7.5 0 1 0 -15 0zM1424.41 130.89 a7.5 7.5 0 1 0 15 0 a7.5 7.5 0 1 0 -15 0zM1359.46 93.39 a7.5 7.5 0 1 0 15 0 a7.5 7.5 0 1 0 -15 0zM1359.46 18.39 a7.5 7.5 0 1 0 15 0 a7.5 7.5 0 1 0 -15 0z" fill="#03305d"></path><path d="M37.88 266.81L81.18 291.81L81.18 341.81L37.88 366.81L-5.42 341.81L-5.42 291.81zM167.79 341.81L211.09 366.81L211.09 416.81L167.79 441.81L124.49 416.81L124.49 366.81zM254.39 191.81L297.69 216.81L297.69 266.81L254.39 291.81L211.09 266.81L211.09 216.81zM341 41.81L384.3 66.81L384.3 116.81L341 141.81L297.69 116.81L297.69 66.81zM341 491.81L384.3 516.81L384.3 566.81L341 591.81L297.69 566.81L297.69 516.81zM514.21 191.81L557.51 216.81L557.51 266.81L514.21 291.81L470.91 266.81L470.91 216.81zM687.42 491.81L730.72 516.81L730.72 566.81L687.42 591.81L644.12 566.81L644.12 516.81zM903.93 416.81L947.23 441.81L947.23 491.81L903.93 516.81L860.63 491.81L860.63 441.81zM1077.14 116.81L1120.44 141.81L1120.44 191.81L1077.14 216.81L1033.84 191.81L1033.84 141.81zM1207.05 191.81L1250.35 216.81L1250.35 266.81L1207.05 291.81L1163.75 266.81L1163.75 216.81zM1336.96 116.81L1380.26 141.81L1380.26 191.81L1336.96 216.81L1293.65 191.81L1293.65 141.81zM1380.26 341.81L1423.56 366.81L1423.56 416.81L1380.26 441.81L1336.96 416.81L1336.96 366.81zM1380.26 491.81L1423.56 516.81L1423.56 566.81L1380.26 591.81L1336.96 566.81L1336.96 516.81z" stroke="rgba(0, 87, 176, 0.93)" stroke-width="2"></path></g><defs><mask id="SvgjsMask1039"><rect width="1440" height="560" fill="#ffffff"></rect></mask></defs></svg>