<svg xmlns="http://www.w3.org/2000/svg" version="1.1" xmlns:xlink="http://www.w3.org/1999/xlink" xmlns:svgjs="http://svgjs.dev/svgjs" width="1441" height="560" preserveAspectRatio="none" viewBox="0 0 1441 560"><g mask="url(&quot;#SvgjsMask1061&quot;)" fill="none"><rect width="1441" height="560" x="0" y="0" fill="rgba(28, 28, 29, 1)"></rect><path d="M205.49 46.95L270.44 84.45L270.44 159.45L205.49 196.95L140.54 159.45L140.54 84.45zM140.54 159.45L205.49 196.95L205.49 271.95L140.54 309.45L75.58 271.95L75.58 196.95zM335.4 46.95L400.35 84.45L400.35 159.45L335.4 196.95L270.44 159.45L270.44 84.45zM270.44 159.45L335.4 196.95L335.4 271.95L270.44 309.45L205.49 271.95L205.49 196.95zM270.44 384.45L335.4 421.95L335.4 496.95L270.44 534.45L205.49 496.95L205.49 421.95zM595.21 46.95L660.17 84.45L660.17 159.45L595.21 196.95L530.26 159.45L530.26 84.45zM595.21 496.95L660.17 534.45L660.17 609.45L595.21 646.95L530.26 609.45L530.26 534.45zM790.07 159.45L855.03 196.95L855.03 271.95L790.07 309.45L725.12 271.95L725.12 196.95zM1504.57 46.95L1569.52 84.45L1569.52 159.45L1504.57 196.95L1439.61 159.45L1439.61 84.45z" stroke="#03305d" stroke-width="2"></path><path d="M197.99 46.95 a7.5 7.5 0 1 0 15 0 a7.5 7.5 0 1 0 -15 0zM262.94 84.45 a7.5 7.5 0 1 0 15 0 a7.5 7.5 0 1 0 -15 0zM262.94 159.45 a7.5 7.5 0 1 0 15 0 a7.5 7.5 0 1 0 -15 0zM197.99 196.95 a7.5 7.5 0 1 0 15 0 a7.5 7.5 0 1 0 -15 0zM133.04 159.45 a7.5 7.5 0 1 0 15 0 a7.5 7.5 0 1 0 -15 0zM133.04 84.45 a7.5 7.5 0 1 0 15 0 a7.5 7.5 0 1 0 -15 0zM197.99 271.95 a7.5 7.5 0 1 0 15 0 a7.5 7.5 0 1 0 -15 0zM133.04 309.45 a7.5 7.5 0 1 0 15 0 a7.5 7.5 0 1 0 -15 0zM68.08 271.95 a7.5 7.5 0 1 0 15 0 a7.5 7.5 0 1 0 -15 0zM68.08 196.95 a7.5 7.5 0 1 0 15 0 a7.5 7.5 0 1 0 -15 0zM327.9 46.95 a7.5 7.5 0 1 0 15 0 a7.5 7.5 0 1 0 -15 0zM392.85 84.45 a7.5 7.5 0 1 0 15 0 a7.5 7.5 0 1 0 -15 0zM392.85 159.45 a7.5 7.5 0 1 0 15 0 a7.5 7.5 0 1 0 -15 0zM327.9 196.95 a7.5 7.5 0 1 0 15 0 a7.5 7.5 0 1 0 -15 0zM327.9 271.95 a7.5 7.5 0 1 0 15 0 a7.5 7.5 0 1 0 -15 0zM262.94 309.45 a7.5 7.5 0 1 0 15 0 a7.5 7.5 0 1 0 -15 0zM262.94 384.45 a7.5 7.5 0 1 0 15 0 a7.5 7.5 0 1 0 -15 0zM327.9 421.95 a7.5 7.5 0 1 0 15 0 a7.5 7.5 0 1 0 -15 0zM327.9 496.95 a7.5 7.5 0 1 0 15 0 a7.5 7.5 0 1 0 -15 0zM262.94 534.45 a7.5 7.5 0 1 0 15 0 a7.5 7.5 0 1 0 -15 0zM197.99 496.95 a7.5 7.5 0 1 0 15 0 a7.5 7.5 0 1 0 -15 0zM197.99 421.95 a7.5 7.5 0 1 0 15 0 a7.5 7.5 0 1 0 -15 0zM587.71 46.95 a7.5 7.5 0 1 0 15 0 a7.5 7.5 0 1 0 -15 0zM652.67 84.45 a7.5 7.5 0 1 0 15 0 a7.5 7.5 0 1 0 -15 0zM652.67 159.45 a7.5 7.5 0 1 0 15 0 a7.5 7.5 0 1 0 -15 0zM587.71 196.95 a7.5 7.5 0 1 0 15 0 a7.5 7.5 0 1 0 -15 0zM522.76 159.45 a7.5 7.5 0 1 0 15 0 a7.5 7.5 0 1 0 -15 0zM522.76 84.45 a7.5 7.5 0 1 0 15 0 a7.5 7.5 0 1 0 -15 0zM587.71 496.95 a7.5 7.5 0 1 0 15 0 a7.5 7.5 0 1 0 -15 0zM652.67 534.45 a7.5 7.5 0 1 0 15 0 a7.5 7.5 0 1 0 -15 0zM652.67 609.45 a7.5 7.5 0 1 0 15 0 a7.5 7.5 0 1 0 -15 0zM587.71 646.95 a7.5 7.5 0 1 0 15 0 a7.5 7.5 0 1 0 -15 0zM522.76 609.45 a7.5 7.5 0 1 0 15 0 a7.5 7.5 0 1 0 -15 0zM522.76 534.45 a7.5 7.5 0 1 0 15 0 a7.5 7.5 0 1 0 -15 0zM782.57 159.45 a7.5 7.5 0 1 0 15 0 a7.5 7.5 0 1 0 -15 0zM847.53 196.95 a7.5 7.5 0 1 0 15 0 a7.5 7.5 0 1 0 -15 0zM847.53 271.95 a7.5 7.5 0 1 0 15 0 a7.5 7.5 0 1 0 -15 0zM782.57 309.45 a7.5 7.5 0 1 0 15 0 a7.5 7.5 0 1 0 -15 0zM717.62 271.95 a7.5 7.5 0 1 0 15 0 a7.5 7.5 0 1 0 -15 0zM717.62 196.95 a7.5 7.5 0 1 0 15 0 a7.5 7.5 0 1 0 -15 0zM1497.07 46.95 a7.5 7.5 0 1 0 15 0 a7.5 7.5 0 1 0 -15 0zM1562.02 84.45 a7.5 7.5 0 1 0 15 0 a7.5 7.5 0 1 0 -15 0zM1562.02 159.45 a7.5 7.5 0 1 0 15 0 a7.5 7.5 0 1 0 -15 0zM1497.07 196.95 a7.5 7.5 0 1 0 15 0 a7.5 7.5 0 1 0 -15 0zM1432.11 159.45 a7.5 7.5 0 1 0 15 0 a7.5 7.5 0 1 0 -15 0zM1432.11 84.45 a7.5 7.5 0 1 0 15 0 a7.5 7.5 0 1 0 -15 0z" fill="#03305d"></path><path d="M87.66 279.3L130.96 304.3L130.96 354.3L87.66 379.3L44.35 354.3L44.35 304.3zM87.66 429.3L130.96 454.3L130.96 504.3L87.66 529.3L44.35 504.3L44.35 454.3zM174.26 279.3L217.56 304.3L217.56 354.3L174.26 379.3L130.96 354.3L130.96 304.3zM304.17 54.3L347.47 79.3L347.47 129.3L304.17 154.3L260.87 129.3L260.87 79.3zM304.17 204.3L347.47 229.3L347.47 279.3L304.17 304.3L260.87 279.3L260.87 229.3zM390.77 504.3L434.08 529.3L434.08 579.3L390.77 604.3L347.47 579.3L347.47 529.3zM434.08 129.3L477.38 154.3L477.38 204.3L434.08 229.3L390.77 204.3L390.77 154.3zM563.98 504.3L607.28 529.3L607.28 579.3L563.98 604.3L520.68 579.3L520.68 529.3zM650.59 204.3L693.89 229.3L693.89 279.3L650.59 304.3L607.28 279.3L607.28 229.3zM607.28 279.3L650.59 304.3L650.59 354.3L607.28 379.3L563.98 354.3L563.98 304.3zM693.89 -20.7L737.19 4.3L737.19 54.3L693.89 79.3L650.59 54.3L650.59 4.3zM693.89 279.3L737.19 304.3L737.19 354.3L693.89 379.3L650.59 354.3L650.59 304.3zM693.89 429.3L737.19 454.3L737.19 504.3L693.89 529.3L650.59 504.3L650.59 454.3zM823.8 54.3L867.1 79.3L867.1 129.3L823.8 154.3L780.5 129.3L780.5 79.3zM780.5 129.3L823.8 154.3L823.8 204.3L780.5 229.3L737.19 204.3L737.19 154.3zM823.8 354.3L867.1 379.3L867.1 429.3L823.8 454.3L780.5 429.3L780.5 379.3zM823.8 504.3L867.1 529.3L867.1 579.3L823.8 604.3L780.5 579.3L780.5 529.3zM867.1 429.3L910.4 454.3L910.4 504.3L867.1 529.3L823.8 504.3L823.8 454.3zM910.4 504.3L953.71 529.3L953.71 579.3L910.4 604.3L867.1 579.3L867.1 529.3zM1040.31 279.3L1083.61 304.3L1083.61 354.3L1040.31 379.3L997.01 354.3L997.01 304.3zM1040.31 429.3L1083.61 454.3L1083.61 504.3L1040.31 529.3L997.01 504.3L997.01 454.3zM1170.22 54.3L1213.52 79.3L1213.52 129.3L1170.22 154.3L1126.91 129.3L1126.91 79.3zM1126.91 129.3L1170.22 154.3L1170.22 204.3L1126.91 229.3L1083.61 204.3L1083.61 154.3zM1170.22 354.3L1213.52 379.3L1213.52 429.3L1170.22 454.3L1126.91 429.3L1126.91 379.3zM1300.13 -20.7L1343.43 4.3L1343.43 54.3L1300.13 79.3L1256.82 54.3L1256.82 4.3zM1343.43 54.3L1386.73 79.3L1386.73 129.3L1343.43 154.3L1300.13 129.3L1300.13 79.3zM1300.13 279.3L1343.43 304.3L1343.43 354.3L1300.13 379.3L1256.82 354.3L1256.82 304.3zM1343.43 354.3L1386.73 379.3L1386.73 429.3L1343.43 454.3L1300.13 429.3L1300.13 379.3zM1386.73 -20.7L1430.03 4.3L1430.03 54.3L1386.73 79.3L1343.43 54.3L1343.43 4.3z" stroke="rgba(0, 87, 176, 0.93)" stroke-width="2"></path></g><defs><mask id="SvgjsMask1061"><rect width="1441" height="560" fill="#ffffff"></rect></mask></defs></svg>