<svg viewBox="0 0 100 100" xmlns="http://www.w3.org/2000/svg">
  <defs>
    <linearGradient id="integrationGrad" x1="0%" y1="0%" x2="100%" y2="100%">
      <stop offset="0%" style="stop-color:#4a9eff"/>
      <stop offset="100%" style="stop-color:#F9B233"/>
    </linearGradient>
  </defs>
  <!-- Central hub -->
  <circle cx="50" cy="50" r="15" fill="url(#integrationGrad)"/>
  <circle cx="50" cy="50" r="10" fill="white" opacity="0.9"/>
  <!-- Connected nodes -->
  <circle cx="20" cy="25" r="8" fill="#F9B233" opacity="0.8"/>
  <circle cx="80" cy="25" r="8" fill="#F9B233" opacity="0.8"/>
  <circle cx="20" cy="75" r="8" fill="#F9B233" opacity="0.8"/>
  <circle cx="80" cy="75" r="8" fill="#F9B233" opacity="0.8"/>
  <!-- Connection lines -->
  <line x1="35" y1="40" x2="28" y2="33" stroke="#4a9eff" stroke-width="2" opacity="0.7"/>
  <line x1="65" y1="40" x2="72" y2="33" stroke="#4a9eff" stroke-width="2" opacity="0.7"/>
  <line x1="35" y1="60" x2="28" y2="67" stroke="#4a9eff" stroke-width="2" opacity="0.7"/>
  <line x1="65" y1="60" x2="72" y2="67" stroke="#4a9eff" stroke-width="2" opacity="0.7"/>
  <!-- Animated data flow -->
  <circle r="2" fill="#F9B233">
    <animateMotion dur="3s" repeatCount="indefinite">
      <path d="M28,33 Q35,40 50,50 Q65,60 72,67"/>
    </animateMotion>
  </circle>
  <!-- Icons in nodes - use simple shapes instead of emoji -->
  <rect x="18" y="23" width="4" height="4" fill="white" rx="1"/>
  <rect x="78" y="23" width="4" height="4" fill="white" rx="1"/>
  <circle cx="20" cy="75" r="2" fill="white"/>
  <rect x="78" y="73" width="4" height="4" fill="white" rx="2"/>
</svg>