<?xml version="1.0" encoding="UTF-8" standalone="no"?>
<!-- Generator: Adobe Illustrator 26.0.2, SVG Export Plug-In . SVG Version: 6.00 Build 0)  -->

<svg
   version="1.1"
   id="Layer_1"
   x="0px"
   y="0px"
   viewBox="0 0 64.699995 58.80605"
   xml:space="preserve"
   sodipodi:docname="logo.svg"
   width="64.699997"
   height="58.806053"
   inkscape:version="1.1 (c68e22c387, 2021-05-23)"
   xmlns:inkscape="http://www.inkscape.org/namespaces/inkscape"
   xmlns:sodipodi="http://sodipodi.sourceforge.net/DTD/sodipodi-0.dtd"
   xmlns="http://www.w3.org/2000/svg"
   xmlns:svg="http://www.w3.org/2000/svg"><defs
   id="defs39" /><sodipodi:namedview
   id="namedview37"
   pagecolor="#ffffff"
   bordercolor="#666666"
   borderopacity="1.0"
   inkscape:pageshadow="2"
   inkscape:pageopacity="0.0"
   inkscape:pagecheckerboard="0"
   showgrid="false"
   fit-margin-top="0"
   fit-margin-left="0"
   fit-margin-right="0"
   fit-margin-bottom="0"
   inkscape:zoom="2.4143708"
   inkscape:cx="60.885429"
   inkscape:cy="29.407248"
   inkscape:window-width="1920"
   inkscape:window-height="1016"
   inkscape:window-x="1912"
   inkscape:window-y="-8"
   inkscape:window-maximized="1"
   inkscape:current-layer="Layer_1" />
<style
   type="text/css"
   id="style2">
	.st0{fill:#E86630;}
	.st1{fill:#888483;}
</style>
<g
   id="Layer_2_00000011751570361970398030000001085817478460117430_"
   transform="translate(-3.9,-3.1939454)">
	<g
   id="Layer_4">
		<path
   class="st0"
   d="m 41.3,31 v 3.2 h 24 c -0.2,7.2 -1.2,15 -5.9,19.1 -4.8,4.5 -14,5.3 -23.1,5.4 C 27.2,58.8 17.9,57.8 13.1,53.3 8.3,48.8 7.3,40.9 7.2,32.7 7,24.4 8,16.2 13.1,11.9 c 5.1,-4.3 14,-5.3 23.1,-5.4 9.1,-0.1 18.4,0.9 23.2,5.4 2.7,2.3 4.3,5.8 5.2,11.1 H 59.9 C 59.4,19.9 57.8,17.1 55.6,15 51.3,10.9 43.8,10.3 36.3,10.2 28.8,10.1 21.3,11 17.1,15 c -4.2,4 -5.3,10.8 -5.4,17.7 -0.1,6.9 0.9,13.7 5.4,17.6 4.5,3.9 11.7,4.6 19.2,4.8 7.5,0.2 15,-0.8 19.2,-4.8 2.6,-2.5 4.3,-5.8 4.7,-9.4 L 60.6,39 h -11 l -0.4,1.1 c -0.4,1 -1,2 -1.8,2.7 -2.2,2.1 -6.9,2.5 -11.1,2.6 -4.2,0.1 -8.9,-0.4 -11.2,-2.6 -2.3,-2.2 -2.6,-6.2 -2.7,-10.1 -0.1,-3.9 0.5,-8.1 2.8,-10.2 2.3,-2.1 6.7,-2.5 11,-2.5 4.2,-0.1 8.9,0.4 11.2,2.6 1,0.9 1.7,2.1 2,3.4 l 0.1,0.4 h 3.3 l -0.2,-0.6 c -0.4,-2.1 -1.5,-4 -3,-5.5 -3,-2.9 -8.3,-3.4 -13.4,-3.5 -5.1,-0.1 -10.3,0.6 -13.3,3.4 -3,2.8 -3.7,7.7 -3.8,12.5 -0.1,4.8 0.6,9.7 3.8,12.4 3.2,2.7 8.3,3.4 13.4,3.5 5.1,0.1 10.3,-0.6 13.3,-3.4 0.9,-0.8 1.6,-1.8 2.1,-2.9 h 4.8 c -0.5,2.2 -1.6,4.1 -3.2,5.7 -3.5,3.3 -10.6,3.8 -17,3.9 -6.4,0.1 -13.6,-0.6 -17.1,-4 -3.6,-3.3 -4.1,-9.2 -4.3,-15.2 -0.1,-6 0.7,-12.1 4.3,-15.3 3.6,-3.2 10.6,-3.8 17.1,-3.9 6.4,-0.1 13.6,0.6 17.1,4 2.1,2 3.3,4.7 3.6,7.5 l 0.2,1.3 h 11 L 68,24.5 C 67.2,17.4 65.1,12.7 61.6,9.5 56,4.3 46.1,3.4 36.2,3.2 26.3,3.1 16.5,4.2 10.9,9.4 5,14.6 4.1,23.6 3.9,32.6 c 0.2,9 1.1,18 7,23.1 5.9,5.1 15.5,6.3 25.4,6.3 9.9,0 19.7,-1 25.3,-6.2 5.9,-5.1 6.8,-14.1 7,-23.1 V 31 Z"
   id="path4" />
	</g>
</g>

</svg>
